<mxfile host="app.diagrams.net" modified="2021-04-27T20:13:56.245Z" agent="5.0 (Windows NT 10.0; Win64; x64) AppleWebKit/537.36 (KHTML, like Gecko) Chrome/90.0.4430.85 Safari/537.36 Edg/90.0.818.46" etag="gJm76efDWZwL4-ZKxyzF" version="14.6.6" type="github">
  <diagram id="EQcb45VvZAIHt9FdahxI" name="Page-1">
    <mxGraphModel dx="868" dy="450" grid="1" gridSize="10" guides="1" tooltips="1" connect="1" arrows="1" fold="1" page="1" pageScale="1" pageWidth="850" pageHeight="1100" math="0" shadow="0">
      <root>
        <mxCell id="0" />
        <mxCell id="1" parent="0" />
        <mxCell id="Eely5aN29lA8_YRNRJ5P-1" value="Water Flooding&amp;nbsp;" style="text;html=1;strokeColor=none;fillColor=none;align=center;verticalAlign=middle;whiteSpace=wrap;rounded=0;" vertex="1" parent="1">
          <mxGeometry x="10" y="450" width="110" height="40" as="geometry" />
        </mxCell>
        <mxCell id="Eely5aN29lA8_YRNRJ5P-2" value="" style="endArrow=none;html=1;" edge="1" parent="1">
          <mxGeometry width="50" height="50" relative="1" as="geometry">
            <mxPoint x="170" y="680" as="sourcePoint" />
            <mxPoint x="170" y="180" as="targetPoint" />
            <Array as="points">
              <mxPoint x="170" y="460" />
            </Array>
          </mxGeometry>
        </mxCell>
        <mxCell id="Eely5aN29lA8_YRNRJ5P-3" value="" style="endArrow=classic;html=1;" edge="1" parent="1">
          <mxGeometry width="50" height="50" relative="1" as="geometry">
            <mxPoint x="120" y="470" as="sourcePoint" />
            <mxPoint x="160" y="470" as="targetPoint" />
          </mxGeometry>
        </mxCell>
        <mxCell id="Eely5aN29lA8_YRNRJ5P-5" value="" style="endArrow=classic;html=1;" edge="1" parent="1">
          <mxGeometry width="50" height="50" relative="1" as="geometry">
            <mxPoint x="170" y="670" as="sourcePoint" />
            <mxPoint x="310" y="670" as="targetPoint" />
          </mxGeometry>
        </mxCell>
        <mxCell id="Eely5aN29lA8_YRNRJ5P-6" value="" style="endArrow=classic;html=1;" edge="1" parent="1">
          <mxGeometry width="50" height="50" relative="1" as="geometry">
            <mxPoint x="170" y="620" as="sourcePoint" />
            <mxPoint x="310" y="620" as="targetPoint" />
          </mxGeometry>
        </mxCell>
        <mxCell id="Eely5aN29lA8_YRNRJ5P-7" value="" style="endArrow=classic;html=1;" edge="1" parent="1">
          <mxGeometry width="50" height="50" relative="1" as="geometry">
            <mxPoint x="170" y="510" as="sourcePoint" />
            <mxPoint x="310" y="510" as="targetPoint" />
          </mxGeometry>
        </mxCell>
        <mxCell id="Eely5aN29lA8_YRNRJ5P-8" value="Water Disposal&amp;nbsp;" style="text;html=1;strokeColor=none;fillColor=none;align=center;verticalAlign=middle;whiteSpace=wrap;rounded=0;" vertex="1" parent="1">
          <mxGeometry x="310" y="650" width="90" height="30" as="geometry" />
        </mxCell>
        <mxCell id="Eely5aN29lA8_YRNRJ5P-9" value="surface facility&amp;nbsp;" style="text;html=1;strokeColor=none;fillColor=none;align=center;verticalAlign=middle;whiteSpace=wrap;rounded=0;" vertex="1" parent="1">
          <mxGeometry x="310" y="600" width="90" height="30" as="geometry" />
        </mxCell>
        <mxCell id="Eely5aN29lA8_YRNRJ5P-10" value="Water Sources" style="text;html=1;strokeColor=none;fillColor=none;align=center;verticalAlign=middle;whiteSpace=wrap;rounded=0;" vertex="1" parent="1">
          <mxGeometry x="305" y="490" width="110" height="30" as="geometry" />
        </mxCell>
        <mxCell id="Eely5aN29lA8_YRNRJ5P-15" value="Resources&amp;nbsp;" style="text;html=1;strokeColor=none;fillColor=none;align=center;verticalAlign=middle;whiteSpace=wrap;rounded=0;" vertex="1" parent="1">
          <mxGeometry x="510" y="550" width="70" height="40" as="geometry" />
        </mxCell>
        <mxCell id="Eely5aN29lA8_YRNRJ5P-18" value="Gas -Oil separateor" style="text;html=1;strokeColor=none;fillColor=none;align=center;verticalAlign=middle;whiteSpace=wrap;rounded=0;" vertex="1" parent="1">
          <mxGeometry x="510" y="600" width="90" height="30" as="geometry" />
        </mxCell>
        <mxCell id="Eely5aN29lA8_YRNRJ5P-19" value="Water oil separator&amp;nbsp;" style="text;html=1;strokeColor=none;fillColor=none;align=center;verticalAlign=middle;whiteSpace=wrap;rounded=0;" vertex="1" parent="1">
          <mxGeometry x="510" y="660" width="90" height="40" as="geometry" />
        </mxCell>
        <mxCell id="Eely5aN29lA8_YRNRJ5P-20" value="" style="strokeWidth=2;html=1;shape=mxgraph.flowchart.annotation_2;align=left;labelPosition=right;pointerEvents=1;" vertex="1" parent="1">
          <mxGeometry x="580" y="520" width="50" height="100" as="geometry" />
        </mxCell>
        <mxCell id="Eely5aN29lA8_YRNRJ5P-21" value="" style="strokeWidth=2;html=1;shape=mxgraph.flowchart.annotation_2;align=left;labelPosition=right;pointerEvents=1;" vertex="1" parent="1">
          <mxGeometry x="400" y="410" width="100" height="160" as="geometry" />
        </mxCell>
        <mxCell id="Eely5aN29lA8_YRNRJ5P-23" value="" style="strokeWidth=2;html=1;shape=mxgraph.flowchart.annotation_1;align=left;pointerEvents=1;" vertex="1" parent="1">
          <mxGeometry x="480" y="610" width="40" height="80" as="geometry" />
        </mxCell>
        <mxCell id="Eely5aN29lA8_YRNRJ5P-25" value="" style="endArrow=classic;html=1;entryX=0;entryY=0.5;entryDx=0;entryDy=0;entryPerimeter=0;" edge="1" parent="1" target="Eely5aN29lA8_YRNRJ5P-23">
          <mxGeometry width="50" height="50" relative="1" as="geometry">
            <mxPoint x="390" y="620" as="sourcePoint" />
            <mxPoint x="440" y="570" as="targetPoint" />
          </mxGeometry>
        </mxCell>
        <mxCell id="Eely5aN29lA8_YRNRJ5P-27" value="" style="endArrow=none;html=1;entryX=1;entryY=0.5;entryDx=0;entryDy=0;entryPerimeter=0;" edge="1" parent="1" target="Eely5aN29lA8_YRNRJ5P-20">
          <mxGeometry width="50" height="50" relative="1" as="geometry">
            <mxPoint x="600" y="570" as="sourcePoint" />
            <mxPoint x="650" y="520" as="targetPoint" />
          </mxGeometry>
        </mxCell>
        <mxCell id="Eely5aN29lA8_YRNRJ5P-28" value="produced water&amp;nbsp;" style="text;html=1;strokeColor=none;fillColor=none;align=center;verticalAlign=middle;whiteSpace=wrap;rounded=0;" vertex="1" parent="1">
          <mxGeometry x="630" y="610" width="110" height="20" as="geometry" />
        </mxCell>
        <mxCell id="Eely5aN29lA8_YRNRJ5P-29" value="surface water" style="text;html=1;strokeColor=none;fillColor=none;align=center;verticalAlign=middle;whiteSpace=wrap;rounded=0;" vertex="1" parent="1">
          <mxGeometry x="630" y="560" width="110" height="20" as="geometry" />
        </mxCell>
        <mxCell id="Eely5aN29lA8_YRNRJ5P-30" value="Shallow aquifer&amp;nbsp;" style="text;html=1;strokeColor=none;fillColor=none;align=center;verticalAlign=middle;whiteSpace=wrap;rounded=0;" vertex="1" parent="1">
          <mxGeometry x="630" y="510" width="120" height="20" as="geometry" />
        </mxCell>
        <mxCell id="Eely5aN29lA8_YRNRJ5P-33" value="Requirements" style="text;html=1;strokeColor=none;fillColor=none;align=center;verticalAlign=middle;whiteSpace=wrap;rounded=0;" vertex="1" parent="1">
          <mxGeometry x="500" y="400" width="90" height="30" as="geometry" />
        </mxCell>
        <mxCell id="Eely5aN29lA8_YRNRJ5P-35" value="" style="strokeWidth=2;html=1;shape=mxgraph.flowchart.annotation_2;align=left;labelPosition=right;pointerEvents=1;" vertex="1" parent="1">
          <mxGeometry x="590" y="365" width="50" height="100" as="geometry" />
        </mxCell>
        <mxCell id="Eely5aN29lA8_YRNRJ5P-36" value="" style="endArrow=none;html=1;entryX=1;entryY=0.5;entryDx=0;entryDy=0;entryPerimeter=0;" edge="1" parent="1" target="Eely5aN29lA8_YRNRJ5P-35">
          <mxGeometry width="50" height="50" relative="1" as="geometry">
            <mxPoint x="610" y="415" as="sourcePoint" />
            <mxPoint x="660" y="365" as="targetPoint" />
          </mxGeometry>
        </mxCell>
        <mxCell id="Eely5aN29lA8_YRNRJ5P-37" value="Environmental&amp;nbsp; friendly" style="text;html=1;strokeColor=none;fillColor=none;align=center;verticalAlign=middle;whiteSpace=wrap;rounded=0;" vertex="1" parent="1">
          <mxGeometry x="640" y="450" width="110" height="40" as="geometry" />
        </mxCell>
        <mxCell id="Eely5aN29lA8_YRNRJ5P-38" value="less corrosive" style="text;html=1;strokeColor=none;fillColor=none;align=center;verticalAlign=middle;whiteSpace=wrap;rounded=0;" vertex="1" parent="1">
          <mxGeometry x="640" y="405" width="120" height="20" as="geometry" />
        </mxCell>
        <mxCell id="Eely5aN29lA8_YRNRJ5P-39" value="compatibility with rock and formatting&amp;nbsp; water" style="text;html=1;strokeColor=none;fillColor=none;align=center;verticalAlign=middle;whiteSpace=wrap;rounded=0;" vertex="1" parent="1">
          <mxGeometry x="640" y="350" width="150" height="40" as="geometry" />
        </mxCell>
        <mxCell id="Eely5aN29lA8_YRNRJ5P-40" value="" style="strokeWidth=2;html=1;shape=mxgraph.flowchart.annotation_2;align=left;labelPosition=right;pointerEvents=1;" vertex="1" parent="1">
          <mxGeometry x="170" y="30" width="170" height="320" as="geometry" />
        </mxCell>
        <mxCell id="Eely5aN29lA8_YRNRJ5P-42" value="" style="endArrow=none;html=1;" edge="1" parent="1">
          <mxGeometry width="50" height="50" relative="1" as="geometry">
            <mxPoint x="260" y="80" as="sourcePoint" />
            <mxPoint x="340" y="81" as="targetPoint" />
          </mxGeometry>
        </mxCell>
        <mxCell id="Eely5aN29lA8_YRNRJ5P-43" value="" style="endArrow=none;html=1;entryX=1.029;entryY=0.917;entryDx=0;entryDy=0;entryPerimeter=0;" edge="1" parent="1" target="Eely5aN29lA8_YRNRJ5P-40">
          <mxGeometry width="50" height="50" relative="1" as="geometry">
            <mxPoint x="255" y="310" as="sourcePoint" />
            <mxPoint x="305" y="260" as="targetPoint" />
            <Array as="points">
              <mxPoint x="340" y="310" />
            </Array>
          </mxGeometry>
        </mxCell>
        <mxCell id="Eely5aN29lA8_YRNRJ5P-44" value="" style="endArrow=none;html=1;entryX=1.006;entryY=0.753;entryDx=0;entryDy=0;entryPerimeter=0;" edge="1" parent="1" target="Eely5aN29lA8_YRNRJ5P-40">
          <mxGeometry width="50" height="50" relative="1" as="geometry">
            <mxPoint x="255" y="260" as="sourcePoint" />
            <mxPoint x="305" y="210" as="targetPoint" />
          </mxGeometry>
        </mxCell>
        <mxCell id="Eely5aN29lA8_YRNRJ5P-45" value="" style="endArrow=none;html=1;entryX=1.024;entryY=0.577;entryDx=0;entryDy=0;entryPerimeter=0;" edge="1" parent="1" target="Eely5aN29lA8_YRNRJ5P-40">
          <mxGeometry width="50" height="50" relative="1" as="geometry">
            <mxPoint x="255" y="205" as="sourcePoint" />
            <mxPoint x="305" y="155" as="targetPoint" />
          </mxGeometry>
        </mxCell>
        <mxCell id="Eely5aN29lA8_YRNRJ5P-46" value="" style="endArrow=none;html=1;entryX=1.018;entryY=0.423;entryDx=0;entryDy=0;entryPerimeter=0;" edge="1" parent="1" target="Eely5aN29lA8_YRNRJ5P-40">
          <mxGeometry width="50" height="50" relative="1" as="geometry">
            <mxPoint x="255" y="160" as="sourcePoint" />
            <mxPoint x="305" y="110" as="targetPoint" />
          </mxGeometry>
        </mxCell>
        <mxCell id="Eely5aN29lA8_YRNRJ5P-47" value="" style="endArrow=none;html=1;entryX=1;entryY=0.293;entryDx=0;entryDy=0;entryPerimeter=0;exitX=0.524;exitY=0.3;exitDx=0;exitDy=0;exitPerimeter=0;" edge="1" parent="1" source="Eely5aN29lA8_YRNRJ5P-40" target="Eely5aN29lA8_YRNRJ5P-40">
          <mxGeometry width="50" height="50" relative="1" as="geometry">
            <mxPoint x="255" y="130" as="sourcePoint" />
            <mxPoint x="305" y="80" as="targetPoint" />
          </mxGeometry>
        </mxCell>
        <mxCell id="Eely5aN29lA8_YRNRJ5P-48" value="primary&amp;nbsp; Driving mechanism" style="text;html=1;strokeColor=none;fillColor=none;align=center;verticalAlign=middle;whiteSpace=wrap;rounded=0;" vertex="1" parent="1">
          <mxGeometry x="340" y="340" width="230" height="20" as="geometry" />
        </mxCell>
        <mxCell id="Eely5aN29lA8_YRNRJ5P-49" value="Reservoir&amp;nbsp; uniformity and pay conti," style="text;html=1;strokeColor=none;fillColor=none;align=center;verticalAlign=middle;whiteSpace=wrap;rounded=0;" vertex="1" parent="1">
          <mxGeometry x="350" y="300" width="250" height="20" as="geometry" />
        </mxCell>
        <mxCell id="Eely5aN29lA8_YRNRJ5P-50" value="fluid saturation&amp;nbsp;" style="text;html=1;strokeColor=none;fillColor=none;align=center;verticalAlign=middle;whiteSpace=wrap;rounded=0;" vertex="1" parent="1">
          <mxGeometry x="350" y="260" width="150" height="20" as="geometry" />
        </mxCell>
        <mxCell id="Eely5aN29lA8_YRNRJ5P-51" value="Lithology and rock&amp;nbsp; properties&amp;nbsp;" style="text;html=1;strokeColor=none;fillColor=none;align=center;verticalAlign=middle;whiteSpace=wrap;rounded=0;" vertex="1" parent="1">
          <mxGeometry x="350" y="200" width="190" height="20" as="geometry" />
        </mxCell>
        <mxCell id="Eely5aN29lA8_YRNRJ5P-52" value="Reservoir Depth&amp;nbsp;" style="text;html=1;strokeColor=none;fillColor=none;align=center;verticalAlign=middle;whiteSpace=wrap;rounded=0;" vertex="1" parent="1">
          <mxGeometry x="350" y="160" width="140" height="20" as="geometry" />
        </mxCell>
        <mxCell id="Eely5aN29lA8_YRNRJ5P-53" value="Fluid properties&amp;nbsp;" style="text;html=1;strokeColor=none;fillColor=none;align=center;verticalAlign=middle;whiteSpace=wrap;rounded=0;" vertex="1" parent="1">
          <mxGeometry x="350" y="120" width="150" height="20" as="geometry" />
        </mxCell>
        <mxCell id="Eely5aN29lA8_YRNRJ5P-54" value="Reservoir&amp;nbsp; Geometry&amp;nbsp;" style="text;html=1;strokeColor=none;fillColor=none;align=center;verticalAlign=middle;whiteSpace=wrap;rounded=0;" vertex="1" parent="1">
          <mxGeometry x="340" y="70" width="200" height="20" as="geometry" />
        </mxCell>
        <mxCell id="Eely5aN29lA8_YRNRJ5P-55" value="sox at water floodin starts" style="text;html=1;strokeColor=none;fillColor=none;align=center;verticalAlign=middle;whiteSpace=wrap;rounded=0;" vertex="1" parent="1">
          <mxGeometry x="340" y="20" width="230" height="20" as="geometry" />
        </mxCell>
      </root>
    </mxGraphModel>
  </diagram>
</mxfile>
